<?xml version="1.0" encoding="UTF-8"?>
<svg id="Layer_1" xmlns="http://www.w3.org/2000/svg" version="1.1" viewBox="0 0 405 124">
  <!-- Generator: Adobe Illustrator 29.6.0, SVG Export Plug-In . SVG Version: 2.1.1 Build 207)  -->
  <defs>
    <style>
      .st0 {
        fill: #f3a900;
      }
    </style>
  </defs>
  <path class="st0" d="M365.3,18.6h-6.3c0,16.9,9.1,31.7,22.8,39.7h-203.7v6.3h203.7c-13.6,8-22.8,22.8-22.8,39.7h6.3c0-21.9,17.8-39.7,39.7-39.7v-6.3c-21.9,0-39.7-17.8-39.7-39.7Z"/>
  <path class="st0" d="M44.6,20h-6.3c0,21.1-17.2,38.2-38.2,38.2v6.3c21.1,0,38.2,17.2,38.2,38.2h6.3c0-21.1,17.2-38.2,38.2-38.2h68.4v-6.3h-68.4c-21.1,0-38.2-17.2-38.2-38.2ZM41.4,86.4c-4.5-11.4-13.6-20.4-24.9-24.9,11.4-4.5,20.4-13.6,24.9-24.9,4.5,11.4,13.6,20.4,24.9,24.9-11.4,4.5-20.4,13.6-24.9,24.9Z"/>
  <path class="st0" d="M85.8,122.8h8.6v-21.4h21.1v-7.3h-21.1v-12.1h23.8v-7.2h-32.4v48Z"/>
  <path class="st0" d="M146.6,88.4c-2.7-1.6-5.8-2.4-9.3-2.4s-6.6.8-9.3,2.4c-2.7,1.6-4.8,3.8-6.3,6.6s-2.3,6.1-2.3,9.8.8,7,2.3,9.8c1.5,2.8,3.6,5,6.3,6.6,2.7,1.6,5.8,2.4,9.3,2.4s6.6-.8,9.4-2.4c2.7-1.6,4.8-3.8,6.3-6.6,1.5-2.8,2.3-6.1,2.3-9.8s-.8-7-2.3-9.8-3.6-5-6.3-6.6h0ZM144,114c-1.6,2.3-3.9,3.4-6.7,3.4s-5.1-1.1-6.7-3.4c-1.6-2.3-2.5-5.3-2.5-9.2s.8-6.9,2.5-9.2c1.6-2.2,3.9-3.4,6.7-3.4s5.1,1.1,6.7,3.4c1.6,2.2,2.5,5.3,2.5,9.2s-.8,6.9-2.5,9.2Z"/>
  <path class="st0" d="M180.3,86c-2.4,0-4.6.7-6.7,1.9-1.9,1.2-3.4,3-4.5,5.2v-6.3h-7.9v36h8.2v-16.2c0-2.8.3-5,1-6.8.7-1.7,1.5-3.1,2.6-4,1-.9,2.1-1.6,3.3-1.9,1.2-.3,2.2-.5,3.2-.5s2.6.2,4,.6l.7-7.2c-.6-.3-1.3-.4-1.9-.6-.7-.1-1.4-.2-2-.2h0Z"/>
  <path class="st0" d="M226.5,115.9l-7-29.1h-10.9l-7.1,29.3-6.5-29.3h-8.6l9.2,36h11.5l6.7-29,6.6,29h11.5l9.3-36h-8.3l-6.5,29.1Z"/>
  <path class="st0" d="M275,116.2c-.2-.2-.3-.7-.3-1.5v-13.9c0-3.5-.5-6.3-1.5-8.5-1-2.2-2.6-3.8-4.7-4.9-2.1-1-4.6-1.6-7.7-1.6s-6,.5-8.3,1.4c-2.3,1-4.1,2.2-5.4,3.8-1.3,1.6-2.1,3.4-2.4,5.4l8.6,1.6c.2-2,.8-3.6,2-4.7,1.2-1.1,2.8-1.7,5-1.7s3.9.7,4.9,2,1.5,3.3,1.5,5.8v1.2h-4.8c-4.1,0-7.5.5-10.3,1.5-2.8,1-4.9,2.4-6.3,4.2-1.4,1.8-2.1,3.9-2.1,6.4s.5,4.2,1.6,5.8c1.1,1.6,2.6,2.8,4.4,3.7,1.9.8,4,1.3,6.3,1.3s3.8-.3,5.3-.9c1.5-.6,2.7-1.3,3.7-2.2,1-.9,1.8-1.9,2.4-2.9,0,0,0,0,0-.1.2,1.5.8,2.7,1.7,3.6,1.2,1.2,2.9,1.8,5.1,1.8h4.3v-6.3h-1.8c-.7,0-1.1-.1-1.4-.4h0ZM266.7,106.7c0,2.5-.4,4.5-1.2,6.2-.8,1.6-1.9,2.8-3.2,3.6s-2.9,1.2-4.5,1.2-2.6-.2-3.5-.8c-.9-.5-1.5-1.1-1.9-1.9s-.6-1.6-.6-2.4.3-2,.9-3c.6-1,1.6-1.8,3.1-2.5,1.5-.7,3.5-1,6.1-1h4.7v.6h0Z"/>
  <path class="st0" d="M303,86c-2.4,0-4.6.7-6.7,1.9-1.9,1.2-3.4,3-4.5,5.2v-6.3h-7.9v36h8.2v-16.2c0-2.8.3-5,1-6.8.7-1.7,1.5-3.1,2.6-4,1-.9,2.1-1.6,3.3-1.9,1.2-.3,2.2-.5,3.2-.5s2.6.2,4,.6l.7-7.2c-.6-.3-1.3-.4-2-.6-.7-.1-1.4-.2-2-.2h0Z"/>
  <path class="st0" d="M334.5,72.8v19.3c-1.1-1.9-2.5-3.4-4.3-4.3-2.2-1.2-4.5-1.8-7.1-1.8s-5.6.8-7.9,2.2c-2.2,1.5-4,3.7-5.2,6.5-1.2,2.8-1.8,6.1-1.8,10.1s.6,7.3,1.8,10.1c1.2,2.8,2.9,5,5.2,6.5,2.2,1.5,4.8,2.3,7.8,2.3s5-.6,7.1-1.9c2.1-1.2,3.6-3,4.8-5.5v6.6h7.8v-50h-8.3,0ZM333.7,111.8c-.8,1.8-1.9,3.2-3.2,4.1-1.4.9-2.9,1.3-4.6,1.3-2.7,0-4.8-1.1-6.4-3.2-1.6-2.2-2.4-5.2-2.4-9.1s.8-7.1,2.4-9.3c1.6-2.2,3.8-3.3,6.4-3.3s4.6,1,6.3,3.1c1.7,2.1,2.6,5.2,2.6,9.4s-.4,5.1-1.2,6.9h0Z"/>
  <path class="st0" d="M94.5,26.6h21.1v-7.3h-21.1V7.2h23.8V0h-32.4v48h8.6v-21.4Z"/>
  <path class="st0" d="M130.1,18.7c1.1-1.1,2.8-1.7,5-1.7s3.9.7,4.9,2c1,1.3,1.5,3.3,1.5,5.8v1.2h-4.8c-4.1,0-7.5.5-10.3,1.5-2.8,1-4.9,2.4-6.3,4.2-1.4,1.8-2.1,3.9-2.1,6.3s.5,4.2,1.6,5.8c1.1,1.6,2.6,2.8,4.4,3.7,1.9.8,4,1.3,6.3,1.3s3.8-.3,5.3-.9c1.5-.6,2.7-1.3,3.7-2.2s1.8-1.9,2.4-2.9c0,0,0,0,0-.1.2,1.5.8,2.7,1.7,3.6,1.2,1.2,2.9,1.8,5.1,1.8h4.3v-6.3h-1.8c-.7,0-1.1-.1-1.3-.4-.2-.2-.3-.7-.3-1.5v-13.9c0-3.5-.5-6.3-1.6-8.5-1-2.2-2.6-3.8-4.6-4.9-2.1-1-4.6-1.6-7.7-1.6s-6,.5-8.3,1.4c-2.3,1-4.1,2.2-5.4,3.8-1.3,1.6-2.1,3.4-2.4,5.4l8.6,1.6c.2-2,.8-3.6,2-4.7h0ZM141.5,31.9c0,2.5-.4,4.5-1.2,6.2-.8,1.6-1.9,2.8-3.2,3.6-1.4.8-2.9,1.2-4.5,1.2s-2.6-.2-3.5-.8-1.5-1.1-1.9-1.9c-.4-.8-.6-1.6-.6-2.4s.3-2,.9-3c.6-1,1.6-1.8,3.1-2.5s3.5-1,6.1-1h4.7v.6h0Z"/>
  <path class="st0" d="M164.2,58c-.2.2-.6.3-1,.3h-5.8v6.3h6.7c1.8,0,3.3-.4,4.7-1.2,1.4-.8,2.4-2.1,3.1-4l18.2-47.4h-9.2l-9.6,28.9-9.5-28.9h-9.3l14.9,37.7-2.6,7.1c-.2.5-.4.9-.7,1.1Z"/>
  <path class="st0" d="M200.1,46.5c2.7,1.5,5.8,2.3,9.3,2.3s4.6-.4,6.8-1.2c2.1-.8,4-1.9,5.6-3.4,1.6-1.5,2.8-3.5,3.7-5.8l-7.7-2.1c-.7,2.1-1.8,3.6-3.2,4.7s-3.2,1.6-5.2,1.6c-3,0-5.3-1.1-6.8-3.3-1.3-1.9-2.1-4.4-2.2-7.5h25.9c0-4.1-.5-7.5-1.5-10.2-1-2.7-2.4-4.8-4-6.3-1.7-1.5-3.5-2.6-5.5-3.2-2-.6-4-.9-5.9-.9-3.5,0-6.6.8-9.2,2.3-2.7,1.5-4.8,3.7-6.3,6.5-1.5,2.8-2.3,6.1-2.3,10s.8,7.2,2.3,10,3.6,5,6.3,6.5h0ZM204.2,18.8c1.3-1,2.9-1.6,4.8-1.6s2.9.4,4.1,1.1c1.2.8,2.2,1.9,3,3.6.6,1.2,1,2.8,1.2,4.6h-17c.2-1.2.4-2.3.8-3.3.7-1.9,1.7-3.4,3-4.4h0Z"/>
  <path class="st0" d="M233.8,41.4c0,2,.6,3.7,1.9,4.8,1.3,1.2,3,1.8,5.2,1.8h8.3v-6.3h-5.5c-.7,0-1.1-.1-1.3-.4-.2-.2-.3-.7-.3-1.5v-21.6h6.9v-6.3h-6.9V2.8l-8.2,1.9v7.2h-5.4v6.3h5.4v23.2h0Z"/>
  <path class="st0" d="M257.3,41.4c0,2,.6,3.7,1.9,4.8s3,1.8,5.2,1.8h8.3v-6.3h-5.5c-.7,0-1.1-.1-1.4-.4-.2-.2-.3-.7-.3-1.5v-21.6h6.9v-6.3h-6.9V2.8l-8.2,1.9v7.2h-5.4v6.3h5.4v23.2h0Z"/>
  <path class="st0" d="M293.3,48.8c2.4,0,4.6-.4,6.8-1.2,2.1-.8,4-1.9,5.6-3.4,1.6-1.5,2.8-3.5,3.7-5.8l-7.7-2.1c-.7,2.1-1.8,3.6-3.2,4.7-1.4,1-3.2,1.6-5.2,1.6-3,0-5.3-1.1-6.8-3.3-1.3-1.9-2-4.4-2.2-7.5h25.9c0-4.1-.5-7.5-1.5-10.2-1-2.7-2.4-4.8-4-6.3-1.7-1.5-3.5-2.6-5.5-3.2-2-.6-4-.9-5.9-.9-3.5,0-6.6.8-9.2,2.3-2.7,1.5-4.8,3.7-6.3,6.5-1.5,2.8-2.3,6.1-2.3,10s.8,7.2,2.3,10,3.6,5,6.3,6.5c2.7,1.5,5.8,2.3,9.3,2.3h0ZM288.1,18.8c1.3-1,2.9-1.6,4.8-1.6s2.9.4,4.1,1.1c1.2.8,2.2,1.9,3,3.6.6,1.2,1,2.8,1.2,4.6h-17c.2-1.2.4-2.3.8-3.3.7-1.9,1.7-3.4,3-4.4h0Z"/>
</svg>