<svg width="405" height="124" viewBox="0 0 405 124" fill="none" xmlns="http://www.w3.org/2000/svg">
<path d="M365.34 18.63H359C359 35.52 368.15 50.3 381.75 58.3H178.09V64.64H381.75C368.15 72.64 359 87.43 359 104.31H365.34C365.34 82.43 383.14 64.64 405.01 64.64V58.3C383.14 58.3 365.34 40.5 365.34 18.63Z" fill="#0BD9D8"/>
<path d="M44.59 20.05H38.25C38.25 41.14 21.09 58.3 0 58.3V64.64C21.09 64.64 38.25 81.8 38.25 102.89H44.59C44.59 81.8 61.75 64.64 82.84 64.64H151.19V58.3H82.84C61.75 58.3 44.59 41.14 44.59 20.05ZM41.42 86.41C36.89 75.06 27.83 66 16.48 61.47C27.83 56.94 36.89 47.88 41.42 36.53C45.95 47.88 55.01 56.94 66.36 61.47C55.01 66 45.95 75.06 41.42 86.41Z" fill="#0BD9D8"/>
<path d="M85.8201 122.82H94.4501V101.39H115.51V94.12H94.4501V82.06H118.25V74.83H85.8201V122.82Z" fill="#0BD9D8"/>
<path d="M146.61 88.37C143.92 86.78 140.81 85.99 137.28 85.99C133.75 85.99 130.64 86.78 127.95 88.37C125.26 89.96 123.16 92.17 121.65 95C120.14 97.83 119.38 101.1 119.38 104.81C119.38 108.52 120.13 111.79 121.65 114.63C123.16 117.46 125.26 119.67 127.95 121.26C130.64 122.85 133.74 123.64 137.25 123.64C140.76 123.64 143.9 122.85 146.6 121.26C149.3 119.67 151.4 117.46 152.92 114.63C154.43 111.8 155.19 108.53 155.19 104.81C155.19 101.09 154.43 97.8 152.92 94.98C151.41 92.16 149.31 89.95 146.62 88.37H146.61ZM143.98 114C142.33 116.26 140.1 117.38 137.28 117.38C134.46 117.38 132.2 116.25 130.57 114C128.94 111.74 128.12 108.68 128.12 104.82C128.12 100.96 128.94 97.87 130.57 95.62C132.2 93.38 134.44 92.25 137.28 92.25C140.12 92.25 142.33 93.37 143.98 95.62C145.62 97.86 146.45 100.93 146.45 104.82C146.45 108.71 145.63 111.75 143.98 114Z" fill="#0BD9D8"/>
<path d="M180.34 85.99C177.98 85.99 175.76 86.64 173.67 87.92C171.75 89.1 170.26 90.87 169.17 93.16V86.82H161.27V122.81H169.5V106.58C169.5 103.8 169.84 101.54 170.52 99.8C171.2 98.06 172.06 96.72 173.1 95.78C174.14 94.84 175.25 94.21 176.42 93.86C177.59 93.52 178.65 93.34 179.6 93.34C180.89 93.34 182.21 93.54 183.57 93.94L184.3 86.71C183.68 86.44 183.03 86.26 182.35 86.14C181.67 86.03 181 85.97 180.33 85.97L180.34 85.99Z" fill="#0BD9D8"/>
<path d="M226.46 115.91L219.43 86.82H208.53L201.46 116.1L195 86.82H186.4L195.64 122.82H207.13L213.83 93.81L220.46 122.82H231.96L241.23 86.82H232.93L226.46 115.91Z" fill="#0BD9D8"/>
<path d="M275.04 116.18C274.83 115.94 274.72 115.45 274.72 114.71V100.85C274.72 97.38 274.2 94.56 273.17 92.37C272.14 90.18 270.59 88.57 268.52 87.52C266.45 86.48 263.89 85.95 260.82 85.95C257.6 85.95 254.84 86.43 252.56 87.38C250.27 88.34 248.47 89.61 247.14 91.21C245.82 92.81 245.01 94.6 244.72 96.58L253.35 98.21C253.53 96.21 254.19 94.64 255.35 93.51C256.51 92.38 258.16 91.81 260.32 91.81C262.59 91.81 264.21 92.47 265.19 93.78C266.17 95.09 266.66 97.04 266.66 99.61V100.84H261.86C257.77 100.84 254.34 101.34 251.58 102.34C248.81 103.34 246.72 104.75 245.31 106.56C243.9 108.37 243.19 110.49 243.19 112.91C243.19 115.15 243.73 117.08 244.82 118.69C245.91 120.3 247.39 121.53 249.25 122.37C251.11 123.21 253.22 123.64 255.55 123.64C257.62 123.64 259.39 123.35 260.86 122.77C262.33 122.19 263.58 121.45 264.58 120.54C265.58 119.63 266.38 118.65 266.98 117.61C267 117.57 267.02 117.53 267.04 117.48C267.25 118.94 267.81 120.14 268.78 121.05C270 122.22 271.7 122.8 273.88 122.8H278.18V116.53H276.38C275.69 116.53 275.24 116.41 275.03 116.16L275.04 116.18ZM266.72 106.69C266.72 109.18 266.33 111.24 265.54 112.87C264.75 114.5 263.68 115.71 262.34 116.5C261 117.29 259.49 117.68 257.82 117.68C256.38 117.68 255.22 117.43 254.35 116.93C253.48 116.43 252.86 115.79 252.47 115C252.08 114.21 251.89 113.39 251.89 112.55C251.89 111.57 252.19 110.59 252.79 109.6C253.39 108.61 254.42 107.78 255.89 107.1C257.36 106.42 259.39 106.08 261.99 106.08H266.72V106.68V106.69Z" fill="#0BD9D8"/>
<path d="M302.95 85.99C300.59 85.99 298.37 86.64 296.28 87.92C294.36 89.1 292.87 90.87 291.78 93.16V86.82H283.88V122.81H292.11V106.58C292.11 103.8 292.45 101.54 293.13 99.8C293.81 98.06 294.67 96.72 295.71 95.78C296.75 94.85 297.86 94.21 299.03 93.86C300.2 93.52 301.26 93.34 302.21 93.34C303.5 93.34 304.82 93.54 306.18 93.94L306.91 86.71C306.29 86.44 305.64 86.26 304.96 86.14C304.28 86.03 303.61 85.97 302.94 85.97L302.95 85.99Z" fill="#0BD9D8"/>
<path d="M334.55 72.83V92.11C333.41 90.18 332 88.73 330.28 87.79C328.1 86.59 325.75 85.99 323.21 85.99C320.21 85.99 317.59 86.74 315.36 88.24C313.13 89.74 311.4 91.89 310.18 94.69C308.96 97.49 308.35 100.84 308.35 104.75C308.35 108.66 308.96 112.03 310.17 114.87C311.38 117.7 313.1 119.87 315.33 121.38C317.56 122.89 320.16 123.65 323.11 123.65C325.71 123.65 328.08 123.03 330.23 121.78C332.3 120.58 333.87 118.73 334.98 116.24V122.81H342.81V72.82H334.54L334.55 72.83ZM333.71 111.84C332.91 113.67 331.83 115.03 330.48 115.92C329.12 116.81 327.6 117.25 325.91 117.25C323.22 117.25 321.09 116.17 319.51 114C317.93 111.83 317.14 108.82 317.14 104.95C317.14 101.08 317.96 97.86 319.59 95.67C321.22 93.48 323.35 92.39 325.97 92.39C328.46 92.39 330.57 93.42 332.3 95.49C334.03 97.56 334.9 100.69 334.9 104.89C334.9 107.69 334.5 110.01 333.7 111.84H333.71Z" fill="#0BD9D8"/>
<path d="M94.4501 26.56H115.51V19.3H94.4501V7.23H118.25V0H85.8201V47.99H94.4501V26.56Z" fill="#0BD9D8"/>
<path d="M130.11 18.7C131.26 17.57 132.92 17 135.08 17C137.35 17 138.97 17.66 139.95 18.97C140.93 20.28 141.42 22.23 141.42 24.8V26.03H136.62C132.53 26.03 129.11 26.53 126.34 27.53C123.58 28.53 121.48 29.94 120.07 31.75C118.66 33.56 117.95 35.68 117.95 38.1C117.95 40.34 118.49 42.27 119.58 43.88C120.67 45.49 122.15 46.72 124.01 47.56C125.88 48.4 127.98 48.83 130.31 48.83C132.38 48.83 134.15 48.54 135.63 47.96C137.11 47.38 138.35 46.64 139.35 45.73C140.35 44.82 141.15 43.84 141.75 42.8C141.77 42.76 141.79 42.72 141.81 42.67C142.02 44.13 142.58 45.33 143.55 46.24C144.77 47.41 146.47 47.99 148.65 47.99H152.95V41.72H151.15C150.46 41.72 150.01 41.6 149.8 41.35C149.59 41.1 149.48 40.62 149.48 39.88V26.02C149.48 22.55 148.96 19.73 147.93 17.54C146.9 15.35 145.35 13.74 143.28 12.69C141.21 11.64 138.65 11.12 135.58 11.12C132.36 11.12 129.6 11.6 127.32 12.55C125.03 13.51 123.23 14.78 121.9 16.38C120.58 17.98 119.77 19.77 119.48 21.75L128.11 23.38C128.29 21.38 128.95 19.81 130.11 18.68V18.7ZM141.48 31.86C141.48 34.35 141.09 36.41 140.3 38.04C139.51 39.67 138.44 40.88 137.1 41.67C135.75 42.46 134.25 42.85 132.58 42.85C131.14 42.85 129.98 42.6 129.11 42.1C128.24 41.6 127.62 40.96 127.23 40.17C126.84 39.38 126.65 38.57 126.65 37.72C126.65 36.74 126.95 35.76 127.55 34.77C128.15 33.78 129.18 32.95 130.65 32.27C132.12 31.59 134.15 31.25 136.75 31.25H141.48V31.85V31.86Z" fill="#0BD9D8"/>
<path d="M164.17 58C163.94 58.22 163.6 58.33 163.15 58.33H157.32V64.6H164.02C165.77 64.6 167.34 64.19 168.72 63.37C170.1 62.55 171.14 61.22 171.85 59.4L190.07 12H180.87L171.29 40.9L161.74 12H152.48L167.4 49.72L164.82 56.87C164.62 57.4 164.4 57.78 164.17 58Z" fill="#0BD9D8"/>
<path d="M200.1 46.52C202.79 48.05 205.88 48.82 209.36 48.82C211.74 48.82 213.99 48.44 216.13 47.67C218.26 46.9 220.13 45.75 221.73 44.22C223.33 42.69 224.56 40.75 225.43 38.42L217.76 36.29C217.05 38.36 215.97 39.91 214.53 40.96C213.09 42.01 211.34 42.53 209.3 42.53C206.3 42.53 204.03 41.42 202.5 39.21C201.2 37.33 200.45 34.83 200.26 31.73H226.16C226.16 27.62 225.65 24.23 224.63 21.55C223.61 18.87 222.27 16.77 220.62 15.25C218.96 13.73 217.14 12.67 215.15 12.07C213.16 11.47 211.19 11.17 209.23 11.17C205.74 11.17 202.66 11.94 200 13.47C197.33 15 195.25 17.18 193.73 20C192.22 22.82 191.46 26.15 191.46 30C191.46 33.85 192.23 37.18 193.76 40C195.29 42.82 197.4 45 200.09 46.53L200.1 46.52ZM204.2 18.78C205.51 17.75 207.12 17.23 209.03 17.23C210.54 17.23 211.91 17.6 213.15 18.35C214.38 19.1 215.39 20.28 216.18 21.92C216.77 23.15 217.18 24.68 217.4 26.5H200.44C200.61 25.31 200.86 24.22 201.22 23.22C201.9 21.3 202.89 19.82 204.2 18.79V18.78Z" fill="#0BD9D8"/>
<path d="M233.76 41.43C233.76 43.47 234.4 45.08 235.69 46.25C236.98 47.42 238.71 48 240.89 48H249.15V41.73H243.65C242.96 41.73 242.51 41.61 242.3 41.36C242.09 41.12 241.98 40.63 241.98 39.89V18.26H248.85V11.99H241.98V2.83002L233.75 4.76002V11.99H228.35V18.26H233.75V41.42L233.76 41.43Z" fill="#0BD9D8"/>
<path d="M257.29 41.43C257.29 43.47 257.93 45.08 259.22 46.25C260.51 47.42 262.24 48 264.42 48H272.68V41.73H267.18C266.49 41.73 266.04 41.61 265.83 41.36C265.62 41.11 265.51 40.63 265.51 39.89V18.26H272.38V11.99H265.51V2.83002L257.28 4.76002V11.99H251.88V18.26H257.28V41.42L257.29 41.43Z" fill="#0BD9D8"/>
<path d="M293.29 48.82C295.67 48.82 297.92 48.44 300.06 47.67C302.19 46.9 304.06 45.75 305.66 44.22C307.26 42.69 308.49 40.75 309.36 38.42L301.7 36.29C300.99 38.36 299.91 39.91 298.47 40.96C297.03 42 295.28 42.53 293.24 42.53C290.24 42.53 287.97 41.42 286.44 39.21C285.14 37.33 284.39 34.83 284.2 31.73H310.1C310.1 27.62 309.59 24.23 308.57 21.55C307.55 18.87 306.21 16.77 304.55 15.25C302.89 13.73 301.07 12.67 299.08 12.07C297.09 11.47 295.12 11.17 293.17 11.17C289.68 11.17 286.6 11.94 283.94 13.47C281.27 15 279.18 17.18 277.67 20C276.16 22.82 275.4 26.15 275.4 30C275.4 33.85 276.17 37.18 277.7 40C279.23 42.82 281.34 45 284.03 46.53C286.72 48.06 289.81 48.83 293.29 48.83V48.82ZM288.12 18.78C289.43 17.75 291.04 17.23 292.95 17.23C294.46 17.23 295.83 17.6 297.07 18.35C298.3 19.1 299.31 20.28 300.1 21.92C300.69 23.15 301.1 24.68 301.32 26.5H284.36C284.53 25.31 284.78 24.22 285.14 23.22C285.82 21.3 286.81 19.82 288.12 18.79V18.78Z" fill="#0BD9D8"/>
</svg>
