<svg width="208" height="55" viewBox="0 0 208 55" fill="none" xmlns="http://www.w3.org/2000/svg">
<g clip-path="url(#clip0_172_1387)">
<path d="M26.2452 17.3108C22.5309 15.1247 17.3592 15.8501 15.8653 17.533L15.7588 17.6534V30.3555L16.3846 30.0502C19.2762 28.6425 22.5382 28.6468 26.0818 30.0631L26.2554 30.1319L26.4261 30.0545C29.694 28.5823 32.8642 28.5809 36.1175 30.0545L36.7331 30.3326V17.5488L36.4939 17.4312C32.8423 15.6293 29.1251 15.5892 26.2438 17.3094L26.2452 17.3108ZM20.9714 28.1422C19.4585 28.1422 18.0069 28.4289 16.6268 29.0038V17.9845C17.9004 16.8034 22.4551 16.0651 25.8134 18.0519V29.0496C24.1401 28.4476 22.5236 28.1422 20.9728 28.1422H20.9714ZM35.8666 29.0195C32.7883 27.7867 29.7713 27.7896 26.68 29.0238V18.0519C30.1113 15.9834 33.8081 17.113 35.8666 18.0806V29.021V29.0195Z" fill="white"/>
<path d="M23.574 20.3799L23.857 19.5742C22.207 19.0152 20.0698 19.0338 18.446 19.623L18.7466 20.4229C20.185 19.9011 22.1108 19.8839 23.574 20.3813V20.3799Z" fill="white"/>
<path d="M18.4446 25.2738L18.7451 26.0737C20.1836 25.5519 22.1093 25.5347 23.5725 26.0321L23.8556 25.2265C22.2056 24.6674 20.0683 24.686 18.4446 25.2752V25.2738Z" fill="white"/>
<path d="M28.8553 20.3799C30.32 19.8839 32.2443 19.8997 33.6827 20.4215L33.9833 19.6216C32.3595 19.0324 30.2223 19.0138 28.5723 19.5728L28.8553 20.3785V20.3799Z" fill="white"/>
<path d="M28.5723 25.225L28.8553 26.0307C30.32 25.5347 32.2443 25.5504 33.6827 26.0722L33.9833 25.2723C32.3595 24.6832 30.2223 24.6645 28.5723 25.2236V25.225Z" fill="white"/>
<path d="M18.4446 22.4484L18.7451 23.2483C20.1836 22.7265 22.1078 22.7093 23.5725 23.2067L23.8556 22.4011C22.2056 21.842 20.0669 21.8607 18.4446 22.4498V22.4484Z" fill="white"/>
<path d="M28.5723 22.3997L28.8553 23.2053C30.32 22.7093 32.2443 22.7251 33.6827 23.2468L33.9833 22.447C32.3595 21.8578 30.2223 21.8392 28.5723 22.3982V22.3997Z" fill="white"/>
<path d="M7.93188 27.2893L10.3536 29.6688L12.7754 27.2893V17.3595H7.93334V27.2893H7.93188ZM9.39077 27.5172H11.3165L10.3536 28.4633L9.39077 27.5172ZM10.7869 26.6643V20.2308H11.9059V26.6643H10.7869ZM9.91888 26.6643H8.79992V20.2308H9.91888V26.6643ZM11.9059 18.2124V19.3778H8.79992V18.2124H11.9059Z" fill="white"/>
<path d="M44.6987 18.717C44.6987 17.8526 43.6585 17.2018 42.277 17.2018C40.8954 17.2018 39.8552 17.8541 39.8552 18.717L39.8727 18.8346C39.8771 18.8504 40.3089 20.3612 40.344 22.695C40.0361 22.9487 39.8552 23.2698 39.8552 23.6267C39.8552 23.9493 40.0157 24.2546 40.2973 24.5069C40.1995 26.1038 39.9851 27.5401 39.899 28.072C39.8713 28.168 39.8552 28.2669 39.8552 28.3687C39.8552 29.2331 40.8954 29.8839 42.277 29.8839C43.6585 29.8839 44.6987 29.2317 44.6987 28.3687C44.6987 28.2684 44.6827 28.1723 44.6564 28.0777C44.5718 27.5487 44.3573 26.1038 44.2581 24.5141C44.5426 24.2618 44.6987 23.9521 44.6987 23.6253C44.6987 23.2669 44.5178 22.9473 44.21 22.6935C44.2465 20.3885 44.6768 18.8475 44.6812 18.8303L44.6973 18.7142L44.6987 18.717ZM42.277 22.9645C42.7117 22.9645 43.0735 23.0519 43.3405 23.1709C43.3522 24.6087 43.5039 26.078 43.6366 27.1015C43.2544 26.9438 42.789 26.8549 42.277 26.8549C41.7649 26.8549 41.301 26.9452 40.9188 27.1015C41.0515 26.0852 41.2032 24.623 41.2134 23.1723C41.4804 23.0533 41.8422 22.9659 42.277 22.9659V22.9645ZM42.277 29.0324C41.3593 29.0324 40.7481 28.6468 40.7276 28.383C40.7306 28.3644 40.7349 28.3372 40.7408 28.3085C40.8225 28.0476 41.4104 27.705 42.2784 27.705C43.1465 27.705 43.7373 28.049 43.8161 28.3099C43.8205 28.3357 43.8248 28.363 43.8278 28.3816C43.8073 28.6454 43.1961 29.031 42.2784 29.031L42.277 29.0324ZM42.277 22.1115C41.886 22.1115 41.5227 22.166 41.2018 22.2606C41.1332 20.3139 40.8152 19.0037 40.7276 18.6769C40.786 18.4146 41.3885 18.0548 42.277 18.0548C43.1654 18.0548 43.7694 18.416 43.8263 18.6783C43.7402 19.0052 43.4222 20.3326 43.3536 22.2621C43.0327 22.1674 42.6694 22.113 42.2784 22.113L42.277 22.1115Z" fill="white"/>
<path d="M26.1637 35.3641C22.5208 35.3641 19.5579 38.2755 19.5579 41.855C19.5579 45.4344 22.5208 48.3458 26.1637 48.3458C29.8065 48.3458 32.7695 45.4344 32.7695 41.855C32.7695 38.2755 29.8065 35.3641 26.1637 35.3641ZM31.6359 40.1606C30.9649 39.7191 30.0268 39.3722 28.9093 39.1557C28.689 38.0577 28.3359 37.1359 27.8866 36.4765C29.6664 37.0284 31.0743 38.4117 31.6359 40.1606ZM26.1637 47.4929C25.478 47.4929 24.7413 46.422 24.3372 44.6947C24.9134 44.7635 25.5232 44.8022 26.1637 44.8022C26.8041 44.8022 27.4125 44.7635 27.9902 44.6947C27.5875 46.422 26.8493 47.4929 26.1637 47.4929ZM26.1637 43.9507C25.4488 43.9507 24.7836 43.8991 24.1723 43.8117C24.0833 43.211 24.0308 42.5574 24.0308 41.855C24.0308 41.1526 24.0833 40.4989 24.1723 39.8983C24.7836 39.8108 25.4488 39.7592 26.1637 39.7592C26.8785 39.7592 27.5438 39.8108 28.1551 39.8983C28.244 40.4989 28.2966 41.1526 28.2966 41.855C28.2966 42.5574 28.244 43.211 28.1551 43.8117C27.5438 43.8991 26.8785 43.9507 26.1637 43.9507ZM23.2722 43.6483C21.5142 43.2526 20.4244 42.5273 20.4244 41.8535C20.4244 41.1798 21.5142 40.4559 23.2722 40.0588C23.2021 40.625 23.1628 41.2242 23.1628 41.8535C23.1628 42.4828 23.2021 43.0806 23.2722 43.6483ZM26.1637 36.2171C26.8493 36.2171 27.5861 37.2879 27.9902 39.0152C27.4139 38.9464 26.8041 38.9077 26.1637 38.9077C25.5232 38.9077 24.9149 38.9464 24.3372 39.0152C24.7398 37.2879 25.478 36.2171 26.1637 36.2171ZM29.0537 40.0602C30.8117 40.4559 31.9015 41.1812 31.9015 41.855C31.9015 42.5287 30.8117 43.2526 29.0537 43.6497C29.1237 43.0835 29.1631 42.4843 29.1631 41.855C29.1631 41.2257 29.1237 40.6279 29.0537 40.0602ZM24.4393 36.478C23.9899 37.1374 23.6369 38.0591 23.4166 39.1571C22.2991 39.3736 21.361 39.7205 20.69 40.162C21.2516 38.4132 22.6594 37.0298 24.4393 36.478ZM20.69 43.5479C21.361 43.9894 22.2991 44.3363 23.4166 44.5528C23.6369 45.6508 23.9899 46.5726 24.4393 47.232C22.6594 46.6801 21.2516 45.2968 20.69 43.5479ZM27.8866 47.232C28.3359 46.5726 28.689 45.6508 28.9093 44.5528C30.0268 44.3363 30.9649 43.9894 31.6359 43.5479C31.0743 45.2968 29.6664 46.6801 27.8866 47.232Z" fill="white"/>
<path d="M38.2505 35.3068H37.3824C37.3824 36.7144 36.2168 37.8612 34.7827 37.8612V38.7142C36.2153 38.7142 37.3824 39.8595 37.3824 41.2686H38.2505C38.2505 39.8609 39.4161 38.7142 40.8502 38.7142V37.8612C39.4176 37.8612 38.2505 36.7159 38.2505 35.3068ZM37.8172 39.6201C37.5006 39.0596 37.0294 38.5966 36.4604 38.287C37.0309 37.9759 37.5021 37.5129 37.8172 36.9538C38.1338 37.5143 38.605 37.9773 39.1739 38.287C38.6035 38.598 38.1323 39.0611 37.8172 39.6201Z" fill="white"/>
<path d="M15.1096 35.3068H14.2416C14.2416 36.7144 13.0759 37.8612 11.6418 37.8612V38.7142C13.0745 38.7142 14.2416 39.8595 14.2416 41.2686H15.1096C15.1096 39.8609 16.2753 38.7142 17.7079 38.7142V37.8612C16.2753 37.8612 15.1096 36.7159 15.1096 35.3068ZM14.6763 39.6201C14.3597 39.0596 13.8885 38.5966 13.3196 38.287C13.89 37.9759 14.3612 37.5129 14.6763 36.9538C14.9929 37.5143 15.4641 37.9773 16.0331 38.287C15.4627 38.598 14.9914 39.0611 14.6763 39.6201Z" fill="white"/>
<path d="M52.3095 0.213589V0H0.0159358V0.213589C0.0159358 1.2414 0.0115591 2.27064 0.00864137 3.29845C-0.0292895 13.6296 -0.0672203 24.3119 3.17879 33.3759C6.82016 43.545 14.313 50.6092 26.0861 54.9728L26.162 55.0014L26.2379 54.9728C38.011 50.6092 45.5038 43.545 49.1452 33.3759C52.3912 24.3134 52.3533 13.6296 52.3168 3.29845C52.3139 2.27064 52.3095 1.2414 52.3095 0.213589ZM48.7367 33.2339C45.0983 43.3945 37.925 50.1677 26.162 54.5442C14.399 50.1677 7.22573 43.3945 3.58728 33.2339C0.367526 24.2403 0.405457 13.5952 0.441929 3.29989C0.444847 2.34232 0.449223 1.38475 0.449223 0.427179H51.8762C51.8762 1.38475 51.8806 2.34375 51.8835 3.30132C51.92 13.5966 51.9579 24.2417 48.7367 33.2354V33.2339Z" fill="white"/>
<path d="M50.2337 2.62612V2.20038H2.09353V2.62612C2.09353 3.56362 2.08916 4.50112 2.08624 5.43719C2.05268 14.8738 2.01767 24.633 4.98941 32.9315C8.33317 42.2692 15.2089 48.7543 26.0104 52.758L26.1636 52.8153L26.3168 52.758C37.1169 48.7557 43.9926 42.2692 47.3378 32.9315C50.3096 24.6316 50.2746 14.8738 50.241 5.43719C50.2381 4.49969 50.2337 3.56219 50.2337 2.62612ZM2.96011 3.0533H49.3657C49.3657 3.84889 49.37 4.64591 49.373 5.44149C49.373 5.80416 49.3759 6.16827 49.3759 6.53237H46.5208V4.73478H45.6528V6.53237H39.9077V4.73478H39.0397V6.53237H33.2946V4.73478H32.4266V6.53237H26.6815V4.73478H25.8135V6.53237H20.0684V4.73478H19.2004V6.53237H13.4553V4.73478H12.5873V6.53237H6.84219V4.73478H5.97416V6.53237H2.95135C2.95135 6.16827 2.95281 5.80416 2.95427 5.44149C2.95719 4.64591 2.96011 3.84889 2.96157 3.0533H2.96011ZM39.0397 8.89906H33.2946V7.3853H39.0397V8.89906ZM39.9063 7.3853H45.6514V8.89906H39.9063V7.3853ZM32.4251 8.89906H26.6801V7.3853H32.4251V8.89906ZM25.812 8.89906H20.067V7.3853H25.812V8.89906ZM19.1989 8.89906H13.4538V7.3853H19.1989V8.89906ZM12.5858 8.89906H6.84073V7.3853H12.5858V8.89906ZM5.9727 8.89906H2.94698C2.94698 8.39447 2.94698 7.88988 2.94698 7.3853H5.97124V8.89906H5.9727ZM5.9727 9.75055V11.2643H2.96011C2.95573 10.7597 2.95135 10.2551 2.9499 9.75055H5.9727ZM6.84073 9.75055H12.5858V11.2643H6.84073V9.75055ZM13.4538 9.75055H19.1989V11.2643H13.4538V9.75055ZM20.067 9.75055H25.812V11.2643H20.067V9.75055ZM26.6801 9.75055H32.4251V11.2643H26.6801V9.75055ZM33.2932 9.75055H39.0382V11.2643H33.2932V9.75055ZM39.9063 9.75055H45.6514V11.2643H39.9063V9.75055ZM46.5208 9.75055H49.3759C49.3744 10.2551 49.37 10.7597 49.3657 11.2643H46.5208V9.75055ZM46.5208 8.89906V7.3853H49.3788C49.3788 7.88988 49.3803 8.39447 49.3788 8.89906H46.5194H46.5208ZM26.1636 51.9036C15.7793 48.0203 9.36168 42.0656 6.01646 33.2081H46.3093C42.9656 42.0656 36.5465 48.0203 26.1622 51.9036H26.1636ZM46.6157 32.3552H5.7101C3.567 26.1955 3.06952 19.1915 2.97032 12.1187H5.9727V13.9163H6.84073V12.1187H12.5858V13.9163H13.4538V12.1187H19.1989V13.9163H20.067V12.1187H25.812V13.9163H26.6801V12.1187H32.4251V13.9163H33.2932V12.1187H39.0382V13.9163H39.9063V12.1187H45.6514V13.9163H46.5194V12.1187H49.354C49.2548 19.1915 48.7573 26.1969 46.6142 32.3552H46.6157Z" fill="white"/>
<path d="M67.9707 20.8472L65.9151 20.6078C65.9005 19.7104 65.8889 18.7916 65.8816 17.8498C65.8743 16.9094 65.8699 15.9031 65.8699 14.8309H69.2953L69.6046 17.0886H70.6215V11.746H69.6046L69.2953 13.8088H65.8699C65.8699 12.9114 65.8728 11.9997 65.8816 11.0723C65.8889 10.1462 65.8991 9.2202 65.9151 8.29273H71.1087L71.5945 11.0508H72.8536L72.6989 7.20758H61.6931V8.09778L63.7268 8.33717C63.756 9.2632 63.7706 10.1935 63.7706 11.1267V17.8254C63.7706 18.7672 63.756 19.6932 63.7268 20.6049L61.6931 20.8443V21.7345H67.9692V20.8443L67.9707 20.8472Z" fill="white"/>
<path d="M76.6774 22.0198C77.3251 22.0198 77.878 21.875 78.3347 21.5854C78.7913 21.2959 79.3223 20.8615 79.9263 20.2824C80.0153 20.7884 80.2356 21.1941 80.5886 21.498C80.9431 21.8019 81.3837 21.9538 81.9147 21.9538C82.297 21.9538 82.6471 21.8707 82.9651 21.7044C83.2817 21.5381 83.5735 21.2443 83.8375 20.8243L83.3955 20.3469C83.2773 20.4917 83.1519 20.6078 83.0191 20.6938C82.8864 20.7798 82.7244 20.8243 82.5333 20.8243C82.297 20.8243 82.1059 20.7268 81.9585 20.5318C81.8112 20.3369 81.7382 20.0072 81.7382 19.5441V14.9183C81.7382 13.5436 81.4581 12.5702 80.8979 11.9983C80.3377 11.4263 79.4755 11.1411 78.3128 11.1411C77.15 11.1411 76.247 11.3833 75.4738 11.8693C74.7006 12.3538 74.2104 13.0089 74.0047 13.8346C74.0776 14.428 74.4249 14.7248 75.0434 14.7248C75.6036 14.7248 75.9859 14.3779 76.193 13.6826L76.6132 12.2706C76.8495 12.2133 77.0669 12.176 77.2653 12.1617C77.4637 12.1474 77.6446 12.1402 77.8065 12.1402C78.5433 12.1402 79.0728 12.3136 79.3982 12.662C79.722 13.0089 79.884 13.7113 79.884 14.7678V15.3111C79.4419 15.4128 78.9999 15.529 78.5579 15.658C78.1158 15.7884 77.7263 15.9117 77.3864 16.0278C76.3987 16.3761 75.6401 16.723 75.1105 17.07C74.5795 17.4169 74.2162 17.7724 74.0164 18.1336C73.818 18.4963 73.7188 18.8862 73.7188 19.3062C73.7188 20.2035 74.0091 20.8802 74.5912 21.336C75.1733 21.7919 75.8691 22.0198 76.6788 22.0198H76.6774ZM75.8268 18.2841C75.9231 18.0376 76.1259 17.7853 76.4352 17.5244C76.7445 17.2635 77.2157 17.0112 77.8488 16.7646C78.0852 16.6772 78.3872 16.5725 78.7548 16.4493C79.1224 16.326 79.4988 16.2142 79.8825 16.1124V19.4352C79.4405 19.7534 79.0787 19.9957 78.8 20.162C78.5199 20.3283 78.2807 20.4415 78.0823 20.4988C77.8839 20.5576 77.6738 20.5863 77.452 20.5863C76.9516 20.5863 76.5315 20.463 76.193 20.2165C75.8546 19.9699 75.6853 19.5585 75.6853 18.9794C75.6853 18.7629 75.7335 18.5307 75.8283 18.2841H75.8268Z" fill="white"/>
<path d="M87.8479 24.2675C87.524 24.8251 87.1258 25.2996 86.6545 25.6895L86.5437 25.5806C86.249 25.2767 85.9762 25.0631 85.7267 24.9398C85.4772 24.8165 85.2044 24.7549 84.9097 24.7549C84.5713 24.7549 84.2576 24.8337 83.9702 24.9943C83.6828 25.1534 83.5019 25.3928 83.429 25.711C83.429 26.131 83.6317 26.4736 84.0373 26.7431C84.4429 27.0112 84.917 27.1445 85.4626 27.1445C86.3759 27.1445 87.1754 26.7145 87.8596 25.8529C88.5453 24.9914 89.2557 23.5981 89.9925 21.6729L93.5507 12.4441L94.744 12.2047V11.4235H90.4345V12.2047L92.3573 12.4656L89.6394 19.8481L86.8763 12.4441L88.821 12.2262V11.4235H83.5165V12.2047L84.7317 12.3782L88.732 22.3022L88.643 22.5631C88.4358 23.1422 88.1718 23.7099 87.8479 24.2675Z" fill="white"/>
<path d="M100.333 22.0198C101.335 22.0198 102.19 21.7919 102.896 21.336C103.604 20.8802 104.163 20.2681 104.576 19.5012L104.045 19.0883C103.646 19.537 103.211 19.9026 102.74 20.1849C102.269 20.4673 101.68 20.6093 100.972 20.6093C99.9115 20.6093 99.0566 20.2624 98.4089 19.5671C97.7611 18.8719 97.4212 17.8584 97.392 16.5267H104.441C104.485 16.3819 104.522 16.2056 104.552 15.9949C104.581 15.7856 104.596 15.5577 104.596 15.3111C104.596 14.4281 104.412 13.6798 104.043 13.0634C103.674 12.4484 103.181 11.9739 102.562 11.6414C101.944 11.3088 101.251 11.1425 100.485 11.1425C99.5716 11.1425 98.7283 11.3747 97.9551 11.8378C97.1819 12.3008 96.5634 12.9458 96.098 13.7701C95.6326 14.5944 95.4021 15.5648 95.4021 16.6801C95.4021 18.3444 95.8514 19.6517 96.7501 20.5992C97.6488 21.5482 98.8421 22.0212 100.33 22.0212L100.333 22.0198ZM98.0237 13.5938C98.3257 13.0878 98.6875 12.7179 99.1062 12.4857C99.5264 12.2549 99.9421 12.1388 100.355 12.1388C100.812 12.1388 101.22 12.2477 101.582 12.4642C101.942 12.6806 102.23 12.9673 102.444 13.3214C102.657 13.6769 102.765 14.0625 102.765 14.4825C102.765 14.8008 102.68 15.0688 102.511 15.2853C102.342 15.5032 101.992 15.6107 101.461 15.6107H97.4387C97.5277 14.7707 97.7217 14.0984 98.0237 13.5909V13.5938Z" fill="white"/>
<path d="M111.638 20.7383C111.409 20.84 111.17 20.8902 110.92 20.8902C110.551 20.8902 110.258 20.7641 110.036 20.5103C109.816 20.2566 109.705 19.8552 109.705 19.3048V12.5731H112.71V11.422H109.727L109.86 8.46906H108.534L107.959 11.379L105.992 11.6184V12.5731H107.826V17.6978C107.826 18.1179 107.822 18.4619 107.814 18.73C107.807 18.998 107.804 19.2689 107.804 19.5442C107.804 20.3842 108.032 21.0063 108.49 21.412C108.946 21.8177 109.558 22.0198 110.324 22.0198C111.457 22.0198 112.327 21.6371 112.931 20.8687L112.401 20.3039C112.121 20.4917 111.867 20.6365 111.638 20.7383Z" fill="white"/>
<path d="M115.316 17.6978C115.316 18.1179 115.311 18.4619 115.304 18.73C115.297 18.998 115.294 19.2689 115.294 19.5442C115.294 20.3842 115.521 21.0063 115.98 21.412C116.436 21.8177 117.047 22.0198 117.813 22.0198C118.947 22.0198 119.816 21.6371 120.42 20.8687L119.891 20.3039C119.611 20.4917 119.357 20.6365 119.128 20.7383C118.899 20.84 118.66 20.8902 118.41 20.8902C118.041 20.8902 117.748 20.7641 117.526 20.5103C117.306 20.2566 117.195 19.8552 117.195 19.3048V12.5731H120.2V11.422H117.217L117.349 8.46906H116.023L115.449 11.379L113.482 11.6184V12.5731H115.316V17.6978Z" fill="white"/>
<path d="M130.742 19.5012L130.211 19.0883C129.813 19.537 129.378 19.9026 128.907 20.1849C128.436 20.4673 127.846 20.6093 127.139 20.6093C126.078 20.6093 125.223 20.2624 124.575 19.5671C123.928 18.8719 123.588 17.8584 123.559 16.5267H130.608C130.652 16.3819 130.688 16.2056 130.719 15.9949C130.748 15.7856 130.762 15.5577 130.762 15.3111C130.762 14.4281 130.579 13.6798 130.21 13.0634C129.84 12.4484 129.347 11.9739 128.729 11.6414C128.11 11.3088 127.417 11.1425 126.651 11.1425C125.738 11.1425 124.895 11.3747 124.122 11.8378C123.348 12.3008 122.73 12.9458 122.264 13.7701C121.801 14.5958 121.569 15.5648 121.569 16.6801C121.569 18.3444 122.018 19.6517 122.917 20.5992C123.815 21.5482 125.009 22.0212 126.497 22.0212C127.499 22.0212 128.354 21.7933 129.06 21.3375C129.768 20.8816 130.326 20.2695 130.739 19.5026L130.742 19.5012ZM124.189 13.5938C124.491 13.0878 124.853 12.7179 125.271 12.4857C125.691 12.2549 126.107 12.1388 126.52 12.1388C126.977 12.1388 127.385 12.2477 127.747 12.4642C128.107 12.6806 128.395 12.9673 128.609 13.3214C128.822 13.6769 128.93 14.0625 128.93 14.4825C128.93 14.8008 128.846 15.0688 128.676 15.2853C128.507 15.5032 128.157 15.6107 127.626 15.6107H123.604C123.693 14.7707 123.887 14.0984 124.189 13.5909V13.5938Z" fill="white"/>
<path d="M148.488 20.3913C148.061 20.5949 147.623 20.7426 147.174 20.8372C146.724 20.9318 146.285 20.9776 145.859 20.9776C144.857 20.9776 143.963 20.7311 143.175 20.2394C142.387 19.7477 141.771 19.0166 141.329 18.0462C140.887 17.0771 140.665 15.883 140.665 14.4639C140.665 13.0447 140.905 11.8549 141.383 10.8916C141.862 9.92833 142.507 9.20155 143.318 8.70987C144.127 8.21818 145.026 7.97162 146.014 7.97162C146.367 7.97162 146.731 8.01463 147.108 8.10207C147.484 8.18808 147.869 8.34146 148.268 8.55792L148.71 11.0766H150.08L149.991 7.92862C149.254 7.50861 148.51 7.23051 147.759 7.0929C147.007 6.95528 146.329 6.88647 145.725 6.88647C144.65 6.88647 143.659 7.07426 142.753 7.45127C141.847 7.82827 141.059 8.3558 140.388 9.0367C139.717 9.71761 139.195 10.5175 138.82 11.4364C138.444 12.3552 138.257 13.3658 138.257 14.4653C138.257 15.9561 138.57 17.2735 139.196 18.4174C139.822 19.5614 140.699 20.4559 141.827 21.0995C142.954 21.7431 144.262 22.0657 145.75 22.0657C146.53 22.0657 147.3 21.9825 148.059 21.8162C148.818 21.65 149.535 21.3862 150.214 21.0235L150.301 17.8756H148.931L148.489 20.3942L148.488 20.3913Z" fill="white"/>
<path d="M154.885 21.422C155.658 21.8206 156.472 22.0198 157.327 22.0198C158.182 22.0198 158.996 21.8206 159.769 21.422C160.543 21.0235 161.176 20.4229 161.67 19.6202C162.163 18.8174 162.41 17.8211 162.41 16.6342C162.41 15.4473 162.163 14.4223 161.67 13.6052C161.176 12.7882 160.543 12.1718 159.769 11.7589C158.996 11.3461 158.182 11.1396 157.327 11.1396C156.472 11.1396 155.658 11.3461 154.885 11.7589C154.112 12.1718 153.482 12.7867 152.996 13.6052C152.51 14.4238 152.266 15.4329 152.266 16.6342C152.266 17.8355 152.51 18.816 152.996 19.6202C153.482 20.4229 154.112 21.025 154.885 21.422ZM155.127 13.2899C155.635 12.523 156.369 12.1388 157.326 12.1388C158.283 12.1388 159.02 12.523 159.536 13.2899C160.051 14.0582 160.309 15.172 160.309 16.6342C160.309 18.0964 160.051 19.1786 159.536 19.9241C159.021 20.6695 158.284 21.0422 157.326 21.0422C156.367 21.0422 155.635 20.6695 155.127 19.9241C154.62 19.1786 154.364 18.082 154.364 16.6342C154.364 15.1864 154.618 14.0582 155.127 13.2899Z" fill="white"/>
<path d="M173.923 14.5499L173.989 11.5095L173.769 11.293L170.565 11.5969V12.3782L172.133 12.6821L172.068 19.0668C171.036 20.0072 170.005 20.4788 168.973 20.4788C168.384 20.4788 167.942 20.2867 167.647 19.904C167.353 19.5212 167.205 18.8575 167.205 17.9172V14.5513L167.316 11.5109L167.096 11.2945L163.847 11.5984V12.3796L165.415 12.705L165.35 18.1121C165.335 19.5456 165.584 20.5548 166.101 21.1411C166.616 21.7274 167.323 22.0198 168.222 22.0198C168.899 22.0198 169.573 21.8564 170.244 21.531C170.914 21.2056 171.544 20.6881 172.133 19.9785L172.354 21.9109L175.426 21.7374V20.9562L173.923 20.6523V14.5499Z" fill="white"/>
<path d="M178.84 18.8704C178.833 19.5083 178.821 20.1004 178.806 20.6508L177.171 20.9547V21.736H182.297V20.9547L180.773 20.6508C180.758 20.1004 180.747 19.504 180.739 18.859C180.732 18.2153 180.729 17.6534 180.729 17.1761V14.0052C181.289 13.5422 181.804 13.2096 182.275 13.006C182.747 12.8039 183.232 12.7021 183.734 12.7021C184.382 12.7021 184.85 12.8899 185.138 13.2669C185.425 13.6439 185.57 14.3306 185.57 15.3297V17.1761C185.57 17.6677 185.565 18.2368 185.558 18.8805C185.551 19.5241 185.539 20.1147 185.524 20.6508L183.889 20.9547V21.736H189.015V20.9547L187.469 20.6508C187.454 20.1004 187.443 19.5069 187.436 18.8704C187.428 18.234 187.424 17.6692 187.424 17.1775V15.1577C187.424 13.7386 187.192 12.7151 186.728 12.0843C186.264 11.455 185.554 11.1396 184.595 11.1396C183.917 11.1396 183.225 11.3203 182.518 11.6829C181.81 12.0456 181.184 12.5158 180.639 13.0949L180.462 11.3575L180.131 11.1411L177.037 12.4656V13.2254L178.783 13.4203C178.812 13.8547 178.831 14.2675 178.838 14.6574C178.846 15.0488 178.85 15.5405 178.85 16.1339V17.1761C178.85 17.6677 178.846 18.2325 178.838 18.869L178.84 18.8704Z" fill="white"/>
<path d="M203.69 11.422V12.2033L205.613 12.4642L202.895 19.8466L200.132 12.4427L202.077 12.2248V11.422H193.614L193.747 8.46906H192.421L191.846 11.379L189.879 11.6184V12.5731H191.713V17.6978C191.713 18.1179 191.709 18.4619 191.701 18.7299C191.694 18.998 191.691 19.2689 191.691 19.5442C191.691 20.3842 191.919 21.0063 192.377 21.412C192.833 21.8177 193.445 22.0198 194.211 22.0198C195.344 22.0198 196.214 21.6371 196.818 20.8687L196.288 20.3039C196.008 20.4917 195.754 20.6365 195.525 20.7383C195.296 20.84 195.057 20.8902 194.807 20.8902C194.438 20.8902 194.145 20.7641 193.923 20.5103C193.703 20.2566 193.592 19.8552 193.592 19.3048V12.5731H196.597L198.046 12.5201L201.989 22.3022L201.9 22.5631C201.693 23.1422 201.429 23.7099 201.105 24.2675C200.781 24.8251 200.383 25.2996 199.912 25.6895L199.801 25.5806C199.506 25.2767 199.233 25.0631 198.984 24.9398C198.733 24.8165 198.462 24.7549 198.167 24.7549C197.829 24.7549 197.515 24.8337 197.228 24.9943C196.94 25.1534 196.759 25.3928 196.686 25.711C196.686 26.131 196.889 26.4736 197.295 26.7431C197.7 27.0112 198.174 27.1445 198.72 27.1445C199.633 27.1445 200.433 26.7145 201.117 25.8529C201.803 24.9914 202.513 23.5981 203.25 21.6729L206.808 12.4441L208.001 12.2047V11.4235H203.692L203.69 11.422Z" fill="white"/>
<path d="M71.8484 30.9733C70.9132 30.1706 69.5098 29.7678 67.6381 29.7678H61.6931V30.658L63.7268 30.8973C63.756 31.8234 63.7706 32.7537 63.7706 33.6869V40.3856C63.7706 41.3274 63.756 42.2534 63.7268 43.1651L61.6931 43.4045V44.2947H67.9692V43.4045L65.9137 43.1651C65.8991 42.3839 65.8874 41.617 65.8801 40.8629C65.8728 40.1104 65.8684 39.3434 65.8684 38.5608H67.018C68.5353 38.5608 69.7476 38.3586 70.6536 37.953C71.5595 37.5473 72.2189 37.0054 72.6318 36.3245C73.0447 35.6436 73.2504 34.8996 73.2504 34.0883C73.2504 32.8139 72.7821 31.7761 71.8469 30.9719L71.8484 30.9733ZM70.2028 36.5768C69.628 37.2205 68.6709 37.543 67.3302 37.543H65.8713V36.5008C65.8713 35.5304 65.8743 34.5642 65.883 33.6023C65.8903 32.639 65.9005 31.6944 65.9166 30.7683H67.2427C68.5688 30.7683 69.5375 31.0579 70.1488 31.637C70.7601 32.2162 71.0664 33.0347 71.0664 34.0912C71.0664 35.1476 70.779 35.9332 70.2042 36.5768H70.2028Z" fill="white"/>
<path d="M84.4779 37.1087L84.5435 34.0683L84.3232 33.8518L81.1195 34.1557V34.937L82.6878 35.2409L82.6222 41.6256C81.5907 42.566 80.5593 43.0376 79.5279 43.0376C78.9385 43.0376 78.4964 42.8455 78.2018 42.4628C77.9071 42.08 77.7597 41.4163 77.7597 40.4759V37.1101L77.8706 34.0697L77.6503 33.8532L74.4014 34.1571V34.9384L75.9697 35.2638L75.904 40.6709C75.8894 42.1044 76.1389 43.1136 76.6553 43.6999C77.1703 44.2862 77.8779 44.5786 78.7766 44.5786C79.4535 44.5786 80.1275 44.4152 80.7986 44.0898C81.4682 43.7644 82.0984 43.2469 82.6878 42.5373L82.9081 44.4696L85.9805 44.2962V43.5149L84.4779 43.211V37.1087Z" fill="white"/>
<path d="M96.2337 34.3291C95.6005 33.9091 94.893 33.6998 94.1125 33.6998C93.5085 33.6998 92.922 33.8332 92.356 34.1012C91.7885 34.3693 91.2399 34.7922 90.7104 35.3713V31.5052L90.7979 28.4217L90.4886 28.2483L87.1069 29.2259V29.9857L88.9189 30.2036V39.7363C88.9189 40.2279 88.9159 40.797 88.9086 41.4407C88.9014 42.0843 88.8897 42.6821 88.8751 43.2325L87.2178 43.5149V44.2962L90.5324 44.5126L90.7089 43.0361C91.1947 43.6296 91.6951 44.0353 92.2116 44.2517C92.7265 44.4696 93.243 44.5771 93.758 44.5771C94.6275 44.5771 95.4036 44.3492 96.0893 43.8934C96.7749 43.4375 97.3162 42.7924 97.713 41.961C98.1113 41.1296 98.3097 40.1563 98.3097 39.041C98.3097 37.9258 98.1215 36.9496 97.7466 36.1525C97.3702 35.3569 96.8654 34.7477 96.2322 34.3277L96.2337 34.3291ZM95.4503 42.3309C94.8682 43.0046 94.1869 43.34 93.4064 43.34C92.9935 43.34 92.5661 43.2469 92.124 43.0576C91.682 42.8699 91.2326 42.566 90.776 42.1459V36.197C91.38 35.7053 91.9037 35.3713 92.3458 35.1978C92.7878 35.0244 93.1773 34.9369 93.5173 34.9369C94.3415 34.9369 95.0155 35.3025 95.5393 36.0336C96.0615 36.7646 96.3241 37.8254 96.3241 39.2145C96.3241 40.6035 96.0324 41.6571 95.4503 42.3309Z" fill="white"/>
<path d="M103.427 41.4736C103.42 40.8945 103.416 40.3154 103.416 39.7362V31.5066L103.505 28.4231L103.195 28.2497L99.748 29.2273V29.9871L101.56 30.205V39.7377C101.56 40.3168 101.557 40.8916 101.55 41.4636C101.542 42.0355 101.531 42.6175 101.516 43.211L99.748 43.5149V44.2961H105.229V43.5149L103.461 43.211C103.446 42.6319 103.435 42.0527 103.427 41.4736Z" fill="white"/>
<path d="M110.211 41.4192C110.204 40.7755 110.2 40.2136 110.2 39.7362V36.8693L110.265 33.9163L109.934 33.6998L106.531 35.0244V35.7841L108.299 35.9791C108.328 36.4134 108.347 36.8291 108.354 37.2276C108.361 37.6262 108.366 38.1221 108.366 38.7156V39.7362C108.366 40.2136 108.361 40.7755 108.354 41.4192C108.347 42.0628 108.335 42.6606 108.321 43.211L106.663 43.5149V44.2962H111.79V43.5149L110.243 43.211C110.229 42.6606 110.217 42.0642 110.21 41.4192H110.211Z" fill="white"/>
<path d="M110.322 30.9203C110.61 30.6594 110.754 30.3268 110.754 29.9212C110.754 29.5155 110.611 29.1657 110.322 28.912C110.035 28.6583 109.685 28.5321 109.273 28.5321C108.862 28.5321 108.51 28.6583 108.223 28.912C107.935 29.1657 107.791 29.5026 107.791 29.9212C107.791 30.3397 107.934 30.6594 108.223 30.9203C108.51 31.1812 108.86 31.3116 109.273 31.3116C109.686 31.3116 110.035 31.1812 110.322 30.9203Z" fill="white"/>
<path d="M120.741 42.7437C120.21 43.0261 119.628 43.168 118.995 43.168C117.964 43.168 117.116 42.8068 116.454 42.0829C115.791 41.359 115.459 40.3168 115.459 38.9565C115.459 37.5961 115.765 36.5095 116.376 35.7856C116.988 35.0617 117.765 34.699 118.708 34.699C118.899 34.699 119.094 34.7105 119.293 34.732C119.491 34.7535 119.694 34.8008 119.901 34.8725L120.299 36.3059C120.372 36.6098 120.502 36.8593 120.686 37.0557C120.87 37.2506 121.147 37.3495 121.515 37.3495C122.089 37.3495 122.428 37.0743 122.532 36.5238C122.443 35.9877 122.215 35.5075 121.846 35.0803C121.477 34.6531 121.013 34.3163 120.454 34.0711C119.894 33.8246 119.283 33.7013 118.62 33.7013C117.736 33.7013 116.903 33.9177 116.123 34.3521C115.342 34.7864 114.712 35.4129 114.233 36.23C113.755 37.0485 113.516 38.029 113.516 39.1729C113.516 40.8372 113.965 42.1546 114.864 43.125C115.762 44.0955 116.97 44.58 118.487 44.58C119.534 44.58 120.403 44.3406 121.096 43.8633C121.789 43.3859 122.289 42.6979 122.599 41.8005L122.046 41.5181C121.707 42.0542 121.273 42.4628 120.741 42.7452V42.7437Z" fill="white"/>
<path d="M135.149 36.0665L134.265 35.7411C133.47 35.4372 132.854 35.0674 132.42 34.633C131.985 34.1987 131.768 33.6482 131.768 32.9831C131.768 32.1731 132.055 31.561 132.63 31.1482C133.205 30.7354 133.912 30.5289 134.751 30.5289C135.413 30.5289 136.017 30.6737 136.563 30.9633L137.027 33.4174H138.375L138.508 30.5734C138.036 30.2265 137.498 29.9512 136.894 29.7477C136.29 29.5456 135.619 29.4438 134.884 29.4438C133.941 29.4438 133.094 29.6072 132.342 29.9326C131.591 30.258 130.997 30.7182 130.564 31.3116C130.129 31.9051 129.912 32.6218 129.912 33.4618C129.912 34.5628 130.262 35.4558 130.962 36.1439C131.661 36.832 132.579 37.3925 133.714 37.8268L134.576 38.1752C135.518 38.5378 136.207 38.9105 136.642 39.2933C137.076 39.6774 137.294 40.2164 137.294 40.9117C137.294 41.7517 136.985 42.3982 136.366 42.8555C135.747 43.3113 134.914 43.5393 133.868 43.5393C133.397 43.5393 132.981 43.4963 132.62 43.4088C132.258 43.3214 131.909 43.1852 131.569 42.996L131.127 40.4343H129.757L129.625 43.4748C130.139 43.793 130.781 44.0653 131.547 44.289C132.313 44.5126 133.108 44.6258 133.934 44.6258C134.965 44.6258 135.871 44.4596 136.652 44.127C137.432 43.7944 138.048 43.3199 138.497 42.705C138.947 42.09 139.171 41.3546 139.171 40.5003C139.171 39.4725 138.862 38.6152 138.244 37.9272C137.625 37.2391 136.594 36.6213 135.149 36.0708V36.0665Z" fill="white"/>
<path d="M148.322 42.7437C147.791 43.0261 147.208 43.168 146.575 43.168C145.544 43.168 144.696 42.8068 144.034 42.0829C143.372 41.359 143.039 40.3168 143.039 38.9565C143.039 37.5961 143.345 36.5095 143.957 35.7856C144.568 35.0617 145.345 34.699 146.288 34.699C146.479 34.699 146.674 34.7105 146.873 34.732C147.071 34.7535 147.274 34.8008 147.481 34.8725L147.88 36.3059C147.952 36.6098 148.082 36.8593 148.266 37.0557C148.45 37.2506 148.727 37.3495 149.095 37.3495C149.67 37.3495 150.008 37.0743 150.112 36.5238C150.023 35.9877 149.795 35.5075 149.426 35.0803C149.057 34.6531 148.593 34.3163 148.034 34.0711C147.474 33.8246 146.863 33.7013 146.2 33.7013C145.316 33.7013 144.483 33.9177 143.703 34.3521C142.922 34.7864 142.292 35.4129 141.813 36.23C141.335 37.0485 141.096 38.029 141.096 39.1729C141.096 40.8372 141.545 42.1546 142.444 43.125C143.342 44.0955 144.55 44.58 146.068 44.58C147.114 44.58 147.983 44.3406 148.676 43.8633C149.369 43.3859 149.869 42.6979 150.179 41.8005L149.626 41.5181C149.287 42.0542 148.853 42.4628 148.322 42.7452V42.7437Z" fill="white"/>
<path d="M161.857 41.4292C161.85 40.7927 161.847 40.2279 161.847 39.7362V37.7164C161.847 36.2973 161.615 35.2738 161.151 34.643C160.687 34.0137 159.975 33.6984 159.018 33.6984C158.311 33.6984 157.596 33.8833 156.875 34.2517C156.153 34.6215 155.52 35.1018 154.974 35.6952V31.5037L155.062 28.4203L154.752 28.2468L151.371 29.2245V29.9842L153.183 30.2021V39.7348C153.183 40.2121 153.18 40.7741 153.172 41.4177C153.165 42.0613 153.153 42.6591 153.139 43.2096L151.481 43.5135V44.2947H156.609V43.5135L155.085 43.2096C155.07 42.6591 155.059 42.0628 155.051 41.4177C155.044 40.7741 155.04 40.2121 155.04 39.7348V36.6729C155.6 36.1668 156.122 35.8042 156.609 35.5877C157.095 35.3713 157.612 35.2623 158.156 35.2623C158.804 35.2623 159.268 35.4501 159.548 35.8271C159.828 36.2041 159.968 36.8907 159.968 37.8899V39.7362C159.968 40.2279 159.965 40.797 159.958 41.4406C159.95 42.0843 159.939 42.682 159.924 43.2325L158.311 43.5149V44.2961H163.438V43.5149L161.891 43.211C161.876 42.6605 161.864 42.0671 161.857 41.4306V41.4292Z" fill="white"/>
<path d="M172.419 34.3176C171.646 33.9048 170.832 33.6984 169.977 33.6984C169.122 33.6984 168.308 33.9048 167.535 34.3176C166.762 34.7305 166.132 35.3454 165.646 36.164C165.16 36.9825 164.916 37.9917 164.916 39.1929C164.916 40.3942 165.16 41.3747 165.646 42.1789C166.132 42.9816 166.762 43.5837 167.535 43.9808C168.308 44.3793 169.122 44.5785 169.977 44.5785C170.832 44.5785 171.646 44.3793 172.419 43.9808C173.192 43.5823 173.826 42.9816 174.32 42.1789C174.813 41.3761 175.06 40.3798 175.06 39.1929C175.06 38.006 174.813 36.981 174.32 36.164C173.826 35.3469 173.192 34.7305 172.419 34.3176ZM172.187 42.4828C171.672 43.2282 170.936 43.6009 169.977 43.6009C169.019 43.6009 168.286 43.2282 167.779 42.4828C167.271 41.7374 167.016 40.6407 167.016 39.1929C167.016 37.7451 167.269 36.6169 167.779 35.8486C168.286 35.0817 169.02 34.6975 169.977 34.6975C170.934 34.6975 171.671 35.0817 172.187 35.8486C172.702 36.6169 172.961 37.7308 172.961 39.1929C172.961 40.6551 172.702 41.7374 172.187 42.4828Z" fill="white"/>
<path d="M184.662 34.3176C183.889 33.9048 183.075 33.6984 182.22 33.6984C181.365 33.6984 180.551 33.9048 179.778 34.3176C179.005 34.7305 178.374 35.3454 177.889 36.164C177.403 36.9825 177.159 37.9917 177.159 39.1929C177.159 40.3942 177.403 41.3747 177.889 42.1789C178.374 42.9816 179.005 43.5837 179.778 43.9808C180.551 44.3793 181.365 44.5785 182.22 44.5785C183.075 44.5785 183.889 44.3793 184.662 43.9808C185.435 43.5823 186.069 42.9816 186.563 42.1789C187.056 41.3761 187.303 40.3798 187.303 39.1929C187.303 38.006 187.056 36.981 186.563 36.164C186.069 35.3469 185.435 34.7305 184.662 34.3176ZM184.43 42.4828C183.915 43.2282 183.179 43.6009 182.22 43.6009C181.262 43.6009 180.529 43.2282 180.022 42.4828C179.514 41.7374 179.259 40.6407 179.259 39.1929C179.259 37.7451 179.512 36.6169 180.022 35.8486C180.529 35.0817 181.263 34.6975 182.22 34.6975C183.177 34.6975 183.914 35.0817 184.43 35.8486C184.945 36.6169 185.203 37.7308 185.203 39.1929C185.203 40.6551 184.945 41.7374 184.43 42.4828Z" fill="white"/>
<path d="M192.419 41.4736C192.412 40.8945 192.407 40.3154 192.407 39.7362V31.5066L192.496 28.4231L192.187 28.2497L188.74 29.2273V29.9871L190.552 30.205V39.7377C190.552 40.3168 190.549 40.8916 190.541 41.4636C190.534 42.0355 190.522 42.6175 190.508 43.211L188.74 43.5149V44.2961H194.221V43.5149L192.453 43.211C192.438 42.6319 192.426 42.0527 192.419 41.4736Z" fill="white"/>
<path d="M200.563 38.2813L199.877 38.0419C199.126 37.7667 198.599 37.5058 198.297 37.2606C197.995 37.0141 197.845 36.6528 197.845 36.1755C197.845 35.7268 198.018 35.3684 198.364 35.1004C198.71 34.8323 199.222 34.699 199.9 34.699C200.415 34.699 200.924 34.8223 201.425 35.0688L201.778 36.8062H202.927L203.016 34.5915C202.545 34.3019 202.062 34.0812 201.569 33.9292C201.075 33.7773 200.526 33.7013 199.922 33.7013C199.096 33.7013 198.398 33.8461 197.823 34.1356C197.248 34.4252 196.813 34.8022 196.519 35.2652C196.224 35.7282 196.077 36.2285 196.077 36.7632C196.077 37.5015 196.32 38.1021 196.806 38.5651C197.292 39.0281 197.94 39.4051 198.751 39.6947L199.767 40.0645C200.46 40.2968 200.975 40.5534 201.314 40.8358C201.652 41.1181 201.822 41.4909 201.822 41.9539C201.822 42.4456 201.619 42.8441 201.213 43.148C200.808 43.4519 200.186 43.6038 199.346 43.6038C198.667 43.6038 198.071 43.4877 197.556 43.2569L197.136 41.3676H195.92L196.009 43.7558C196.555 44.031 197.085 44.2374 197.601 44.375C198.116 44.5126 198.684 44.5815 199.302 44.5815C200.259 44.5815 201.056 44.4367 201.689 44.1471C202.322 43.8575 202.8 43.4777 203.126 43.0075C203.45 42.5373 203.612 42.027 203.612 41.4765C203.612 40.7956 203.38 40.195 202.916 39.6746C202.452 39.1528 201.667 38.6898 200.563 38.2841V38.2813Z" fill="white"/>
</g>
<defs>
<clipPath id="clip0_172_1387">
<rect width="208" height="55" fill="white"/>
</clipPath>
</defs>
</svg>
