<?xml version="1.0" encoding="UTF-8"?><svg id="Layer_1" xmlns="http://www.w3.org/2000/svg" viewBox="0 0 360 390"><defs><style>.cls-1{fill:#fff;}</style></defs><path class="cls-1" d="m180,386.84l-.52-.2c-80.7-30.44-132.06-79.72-157.02-150.66C.21,172.76.47,98.23.72,26.16c.03-7.17.05-14.34.05-21.52v-1.49h358.45v1.49c0,7.17.03,14.35.05,21.53.25,72.07.51,146.59-21.74,209.82-24.96,70.94-76.32,120.22-157.02,150.66l-.52.2ZM3.75,6.13c0,6.68-.03,13.36-.05,20.04-.52,149.3-1.02,290.33,176.31,357.49,177.32-67.16,176.83-208.18,176.31-357.48-.02-6.68-.05-13.37-.05-20.05H3.75Z"/><path class="cls-1" d="m180,371.6l-1.05-.4C14.02,308.99,14.5,172.8,14.96,41.09c.02-6.54.05-13.08.05-19.61v-2.97h329.98v2.97c0,6.54.03,13.08.05,19.62.46,131.71.93,267.9-163.99,330.1l-1.05.4ZM20.95,24.45c0,5.55-.03,11.11-.05,16.66-.47,135.35-.91,263.21,159.09,324.13,160-60.91,159.56-188.77,159.09-324.12-.02-5.55-.04-11.11-.05-16.66H20.95Z"/><path class="cls-1" d="m93.03,68.57v-5.76h69.93l.98,24.86h-8l-3.09-17.83h-33c-.1,5.99-.17,11.98-.21,17.97-.05,5.99-.07,11.89-.07,17.7h21.77l1.96-13.34h6.46v34.55h-6.46l-1.96-14.6h-21.77c0,6.93.02,13.43.07,19.52.04,6.09.11,12.03.21,17.84l13.06,1.54v5.76h-39.88v-5.76l12.92-1.54c.19-5.9.28-11.89.28-17.97v-43.32c0-6.04-.1-12.05-.28-18.04l-12.92-1.54Z"/><path class="cls-1" d="m238.04,158.86c-9.46,0-17.76-2.09-24.92-6.25-7.16-4.17-12.73-9.95-16.71-17.34-3.98-7.39-5.97-15.91-5.97-25.56,0-7.11,1.19-13.64,3.58-19.59,2.39-5.94,5.71-11.12,9.97-15.52,4.26-4.4,9.27-7.82,15.03-10.25,5.76-2.43,12.05-3.65,18.89-3.65,3.84,0,8.14.45,12.92,1.34,4.77.89,9.5,2.69,14.18,5.41l.56,20.36h-8.71l-2.81-16.29c-2.53-1.4-4.99-2.39-7.37-2.95-2.39-.56-4.7-.84-6.95-.84-6.27,0-11.99,1.59-17.13,4.77-5.15,3.18-9.24,7.89-12.29,14.11-3.04,6.23-4.56,13.93-4.56,23.1s1.4,16.9,4.21,23.17c2.81,6.27,6.71,11,11.72,14.18,5.01,3.19,10.69,4.77,17.06,4.77,2.71,0,5.5-.3,8.36-.91,2.85-.61,5.64-1.57,8.35-2.88l2.81-16.29h8.71l-.56,20.36c-4.31,2.34-8.87,4.05-13.69,5.13-4.82,1.07-9.71,1.61-14.67,1.61Z"/><path class="cls-1" d="m93.03,192.83v-5.76h37.77c11.89,0,20.81,2.6,26.75,7.79,5.94,5.2,8.92,11.92,8.92,20.15,0,5.24-1.31,10.07-3.93,14.46-2.62,4.4-6.81,7.91-12.57,10.53-5.76,2.62-13.46,3.93-23.1,3.93h-7.3c0,5.06.02,10.02.07,14.89.04,4.87.11,9.83.21,14.89l13.06,1.54v5.76h-39.88v-5.76l12.92-1.54c.19-5.9.28-11.89.28-17.97v-43.32c0-6.04-.1-12.05-.28-18.04l-12.92-1.54Zm35.25.7h-8.42c-.1,5.99-.17,12.1-.21,18.32-.05,6.23-.07,12.48-.07,18.75v6.74h9.27c8.52,0,14.61-2.08,18.26-6.25,3.65-4.16,5.48-9.52,5.48-16.08s-1.94-12.12-5.83-15.87c-3.89-3.74-10.04-5.61-18.47-5.61Z"/><path class="cls-1" d="m230.39,283.12c-5.24,0-10.3-.73-15.17-2.18-4.87-1.45-8.94-3.21-12.22-5.27l.84-19.66h8.7l2.81,16.57c2.15,1.22,4.38,2.11,6.67,2.67,2.29.56,4.94.84,7.93.84,6.65,0,11.94-1.47,15.87-4.42,3.93-2.95,5.9-7.14,5.9-12.57,0-4.49-1.38-7.98-4.14-10.46-2.76-2.48-7.14-4.89-13.13-7.23l-5.48-2.25c-7.21-2.81-13.04-6.43-17.48-10.88-4.45-4.45-6.67-10.23-6.67-17.34,0-5.43,1.38-10.06,4.14-13.9,2.76-3.84,6.53-6.81,11.3-8.92,4.78-2.11,10.16-3.16,16.15-3.16,4.68,0,8.94.66,12.78,1.97,3.84,1.31,7.26,3.09,10.25,5.34l-.84,18.4h-8.57l-2.95-15.87c-3.46-1.87-7.3-2.81-11.51-2.81-5.34,0-9.83,1.33-13.48,4-3.65,2.67-5.48,6.62-5.48,11.87,0,4.31,1.38,7.87,4.14,10.67,2.76,2.81,6.67,5.2,11.73,7.16l5.62,2.11c9.17,3.56,15.73,7.56,19.66,12.01,3.93,4.45,5.9,10,5.9,16.64,0,5.53-1.43,10.28-4.28,14.25-2.86,3.98-6.76,7.05-11.73,9.2-4.96,2.15-10.72,3.23-17.27,3.23Z"/></svg>