<svg width="119" height="32" viewBox="0 0 119 32" fill="none" xmlns="http://www.w3.org/2000/svg">
<g id="Group 27">
<path id="Vector" d="M51.3719 7.38453H57.108V5.36574H51.3719V2.0112H57.8515V0H49.0225V13.3422H51.3719V7.38453Z" fill="#009109"/>
<path id="Vector_2" d="M61.0816 5.19877C61.3976 4.88381 61.8474 4.72443 62.4348 4.72443C63.0519 4.72443 63.4943 4.90658 63.7582 5.27087C64.0259 5.63517 64.156 6.17402 64.156 6.89122V7.23274H62.8474C61.7322 7.23274 60.8028 7.37315 60.0482 7.65016C59.2935 7.92718 58.7247 8.31803 58.3418 8.82273C57.9589 9.32743 57.7656 9.91561 57.7656 10.5873C57.7656 11.2096 57.9143 11.7485 58.2117 12.1962C58.5091 12.644 58.9106 12.9855 59.4199 13.2208C59.9292 13.4561 60.5017 13.5737 61.1337 13.5737C61.695 13.5737 62.1783 13.494 62.5798 13.3347C62.9813 13.1753 63.3195 12.9666 63.5909 12.7123C63.8623 12.4581 64.0816 12.1887 64.2452 11.8965C64.2526 11.8851 64.2563 11.8737 64.2638 11.8623C64.3195 12.2683 64.4757 12.6023 64.7359 12.8565C65.0705 13.1791 65.5315 13.3422 66.1262 13.3422H67.2973V11.6005H66.8065C66.6207 11.6005 66.498 11.5663 66.4385 11.498C66.3828 11.4297 66.353 11.2931 66.353 11.092V7.23654C66.353 6.27268 66.2118 5.48717 65.9292 4.88002C65.6467 4.27286 65.2266 3.82129 64.6616 3.53289C64.1002 3.24449 63.4013 3.0965 62.5649 3.0965C61.6876 3.0965 60.9366 3.22931 60.3158 3.49494C59.6913 3.76057 59.2006 4.11728 58.84 4.56126C58.4794 5.00524 58.26 5.50235 58.182 6.05259L60.5314 6.50795C60.5798 5.95392 60.7619 5.51753 61.0742 5.20257L61.0816 5.19877ZM64.1783 8.85689C64.1783 9.54752 64.0705 10.1205 63.8549 10.5759C63.6393 11.0313 63.3493 11.3652 62.985 11.5853C62.6169 11.8054 62.208 11.9154 61.7545 11.9154C61.3604 11.9154 61.0482 11.8471 60.8102 11.7067C60.5723 11.5663 60.405 11.388 60.2972 11.1679C60.1894 10.9478 60.1374 10.7201 60.1374 10.4886C60.1374 10.2154 60.2192 9.94218 60.3827 9.66896C60.5463 9.39574 60.8288 9.16426 61.2266 8.97452C61.6244 8.78479 62.1783 8.68992 62.8883 8.68992H64.1783V8.85689Z" fill="#009109"/>
<path id="Vector_3" d="M70.7174 15.1181C70.6542 15.1789 70.5612 15.2092 70.4423 15.2092H68.8549V16.951H70.6802C71.1598 16.951 71.5836 16.8371 71.959 16.6095C72.3345 16.3818 72.617 16.0137 72.8103 15.5052L77.4126 3.33173H74.907L72.2973 11.3652L69.6951 3.33173H67.1709L71.2378 13.8203L70.8921 14.8032C70.8363 14.9512 70.7806 15.0574 70.7137 15.1181H70.7174Z" fill="#009109"/>
<path id="Vector_4" d="M80.1418 12.9324C80.8742 13.3574 81.7143 13.5699 82.666 13.5699C83.3128 13.5699 83.9262 13.4637 84.5099 13.2512C85.0935 13.0386 85.5991 12.7199 86.034 12.2911C86.469 11.8623 86.8073 11.3272 87.0415 10.6783L84.9522 10.0864C84.7589 10.6594 84.4653 11.092 84.0712 11.3841C83.6771 11.6763 83.2013 11.8205 82.6474 11.8205C81.8296 11.8205 81.2125 11.5132 80.7961 10.8984C80.4429 10.3748 80.2385 9.68032 80.1864 8.81892H87.2422C87.2422 7.6767 87.1009 6.73182 86.8259 5.98805C86.547 5.24429 86.1827 4.6599 85.7329 4.23869C85.2831 3.81368 84.785 3.52148 84.2459 3.35452C83.7032 3.18755 83.1678 3.10406 82.6362 3.10406C81.6846 3.10406 80.8481 3.31657 80.1232 3.74158C79.3983 4.16659 78.8295 4.77374 78.4169 5.55925C78.0043 6.34476 77.7998 7.27067 77.7998 8.33699C77.7998 9.4033 78.008 10.333 78.4243 11.1147C78.8407 11.9002 79.4169 12.5036 80.1493 12.9324H80.1418ZM81.2608 5.22152C81.6177 4.93312 82.0563 4.78892 82.5768 4.78892C82.9894 4.78892 83.3612 4.89138 83.6995 5.10009C84.034 5.305 84.3091 5.63894 84.5247 6.09051C84.6883 6.43204 84.7961 6.85705 84.8593 7.36554H80.2385C80.2831 7.0354 80.3537 6.73182 80.4504 6.4548C80.6362 5.91975 80.9039 5.50992 81.2608 5.22152Z" fill="#009109"/>
<path id="Vector_5" d="M89.309 11.517C89.309 12.0862 89.4838 12.5302 89.8369 12.8565C90.1901 13.1829 90.6585 13.3422 91.2533 13.3422H93.5024V11.6005H92.0042C91.8183 11.6005 91.6957 11.5663 91.6362 11.498C91.5767 11.4297 91.5507 11.2931 91.5507 11.092V5.08114H93.4206V3.33936H91.5507V0.789307L89.309 1.32816V3.33936H87.8369V5.08114H89.309V11.5208V11.517Z" fill="#009109"/>
<path id="Vector_6" d="M95.7182 11.517C95.7182 12.0862 95.8929 12.5302 96.2461 12.8565C96.5955 13.1791 97.0677 13.3422 97.6625 13.3422H99.9115V11.6005H98.4134C98.2275 11.6005 98.1048 11.5663 98.0454 11.498C97.9896 11.4297 97.9599 11.2931 97.9599 11.092V5.08114H99.8298V3.33936H97.9599V0.789307L95.7182 1.32816V3.33936H94.2461V5.08114H95.7182V11.5208V11.517Z" fill="#009109"/>
<path id="Vector_7" d="M105.52 13.5738C106.167 13.5738 106.781 13.4675 107.364 13.255C107.948 13.0425 108.454 12.7237 108.889 12.2949C109.323 11.8661 109.662 11.3311 109.896 10.6822L107.807 10.0902C107.613 10.6632 107.32 11.0958 106.926 11.388C106.532 11.6802 106.056 11.8244 105.502 11.8244C104.684 11.8244 104.067 11.517 103.651 10.9023C103.297 10.3786 103.093 9.68416 103.041 8.82276H110.097C110.097 7.68055 109.959 6.73567 109.68 5.9919C109.402 5.24813 109.037 4.66375 108.587 4.24253C108.138 3.82132 107.639 3.52533 107.1 3.35836C106.561 3.19139 106.022 3.10791 105.491 3.10791C104.539 3.10791 103.703 3.32041 102.978 3.74542C102.253 4.17043 101.684 4.77759 101.271 5.5631C100.859 6.3486 100.654 7.27452 100.654 8.34083C100.654 9.40715 100.862 10.3369 101.279 11.1186C101.695 11.9041 102.271 12.5074 103.004 12.9362C103.736 13.365 104.576 13.5738 105.528 13.5738H105.52ZM104.115 5.22157C104.472 4.93317 104.911 4.78897 105.431 4.78897C105.844 4.78897 106.216 4.89143 106.55 5.10014C106.885 5.30505 107.16 5.63899 107.376 6.09056C107.535 6.43209 107.647 6.8571 107.71 7.36559H103.089C103.134 7.03545 103.204 6.73187 103.301 6.45486C103.487 5.9198 103.755 5.50997 104.115 5.22157Z" fill="#009109"/>
<path id="Vector_8" d="M49.0225 31.0864H51.3719V25.1287H57.108V23.1099H51.3719V19.7553H57.8515V17.7441H49.0225V31.0864Z" fill="#009109"/>
<path id="Vector_9" d="M65.5765 21.5085C64.8442 21.0683 63.9966 20.8444 63.0338 20.8444C62.0709 20.8444 61.2234 21.0645 60.491 21.5085C59.7587 21.9525 59.1862 22.5634 58.7773 23.3527C58.3646 24.142 58.1602 25.049 58.1602 26.0811C58.1602 27.1133 58.3646 28.0202 58.7773 28.8095C59.1899 29.5988 59.7587 30.2136 60.491 30.6538C61.2234 31.094 62.0672 31.3179 63.0226 31.3179C63.978 31.3179 64.833 31.0978 65.5691 30.6538C66.3052 30.2136 66.8777 29.5988 67.2903 28.8095C67.7029 28.0202 67.9074 27.1133 67.9074 26.0811C67.9074 25.049 67.7029 24.1344 67.2903 23.3489C66.8777 22.5634 66.3089 21.9525 65.5765 21.5085ZM64.8591 28.635C64.4092 29.2611 63.8033 29.5761 63.0338 29.5761C62.2643 29.5761 61.6509 29.2611 61.2048 28.635C60.7587 28.0089 60.5393 27.1588 60.5393 26.0811C60.5393 25.0034 60.7624 24.1496 61.2048 23.5235C61.6509 22.9012 62.2605 22.5862 63.0338 22.5862C63.807 22.5862 64.4092 22.8974 64.8591 23.5235C65.3052 24.1458 65.5319 24.9996 65.5319 26.0811C65.5319 27.1626 65.3089 28.0051 64.8591 28.635Z" fill="#009109"/>
<path id="Vector_10" d="M74.7627 20.8482C74.1195 20.8482 73.5173 21.0266 72.9485 21.3871C72.4244 21.7172 72.0192 22.2067 71.7218 22.8442V21.0835H69.5693V31.0902H71.811V26.5782C71.811 25.8079 71.9039 25.178 72.0898 24.6923C72.2757 24.2065 72.5099 23.8347 72.7924 23.5766C73.0749 23.3186 73.3798 23.1402 73.6957 23.0454C74.0154 22.9505 74.3017 22.9012 74.5619 22.9012C74.9114 22.9012 75.272 22.9581 75.6437 23.0681L75.8444 21.0569C75.6734 20.981 75.4987 20.9317 75.3128 20.9013C75.127 20.871 74.9448 20.8558 74.7627 20.8558V20.8482Z" fill="#009109"/>
<path id="Vector_11" d="M87.3202 29.1663L85.4057 21.0797H82.4391L80.5135 29.2156L78.7551 21.0797H76.4131L78.9261 31.0864H82.0599L83.8815 23.0226L85.6882 31.0864H88.8183L91.3425 21.0797H89.0823L87.3202 29.1663Z" fill="#009109"/>
<path id="Vector_12" d="M100.551 29.2422C100.491 29.1738 100.465 29.0372 100.465 28.8361V24.9807C100.465 24.0168 100.324 23.2313 100.045 22.6242C99.7625 22.017 99.3424 21.5654 98.7774 21.277C98.216 20.9886 97.5172 20.8406 96.6807 20.8406C95.8034 20.8406 95.0525 20.9735 94.4317 21.2391C93.8071 21.5047 93.3164 21.8614 92.9558 22.3054C92.5952 22.7494 92.3759 23.2465 92.2978 23.7967L94.6473 24.2521C94.6956 23.6981 94.8777 23.2617 95.19 22.9467C95.5023 22.6317 95.9558 22.4762 96.5432 22.4762C97.1603 22.4762 97.6027 22.6583 97.8666 23.0226C98.1343 23.3869 98.2644 23.9257 98.2644 24.643V24.9845H96.9558C95.8406 24.9845 94.9075 25.1249 94.1566 25.4019C93.4019 25.6789 92.8331 26.0698 92.4502 26.5745C92.0673 27.0792 91.874 27.6673 91.874 28.339C91.874 28.9613 92.0227 29.5002 92.3201 29.948C92.6175 30.3957 93.019 30.7373 93.5283 30.9725C94.0376 31.2078 94.6101 31.3255 95.2421 31.3255C95.8034 31.3255 96.2867 31.2458 96.6882 31.0864C97.0897 30.927 97.4279 30.7183 97.6993 30.4678C97.9707 30.2136 98.19 29.9442 98.3536 29.652C98.361 29.6406 98.3647 29.6292 98.3722 29.6178C98.4279 30.0239 98.5841 30.3578 98.8443 30.612C99.1752 30.9346 99.6398 31.0978 100.235 31.0978H101.406V29.356H100.915C100.729 29.356 100.606 29.3218 100.547 29.2535L100.551 29.2422ZM98.2867 26.601C98.2867 27.2917 98.1789 27.8647 97.9633 28.32C97.7476 28.7754 97.4577 29.1093 97.0934 29.3294C96.7291 29.5495 96.3164 29.6596 95.8629 29.6596C95.4688 29.6596 95.1566 29.5913 94.9186 29.4509C94.6807 29.3105 94.5134 29.1321 94.4056 28.912C94.2978 28.6919 94.2458 28.4642 94.2458 28.2328C94.2458 27.9595 94.3276 27.6863 94.4911 27.4131C94.6547 27.1399 94.9372 26.9084 95.335 26.7187C95.7328 26.5289 96.2867 26.4379 96.9967 26.4379H98.2867V26.6048V26.601Z" fill="#009109"/>
<path id="Vector_13" d="M108.153 20.8482C107.51 20.8482 106.908 21.0266 106.339 21.3871C105.815 21.7172 105.41 22.2067 105.112 22.8442V21.0835H102.96V31.0902H105.202V26.5782C105.202 25.8079 105.295 25.178 105.48 24.6923C105.666 24.2065 105.9 23.8347 106.183 23.5766C106.466 23.3186 106.77 23.1402 107.086 23.0454C107.406 22.9505 107.692 22.9012 107.953 22.9012C108.302 22.9012 108.663 22.9581 109.034 23.0681L109.235 21.0569C109.064 20.981 108.889 20.9317 108.703 20.9013C108.518 20.871 108.335 20.8558 108.153 20.8558V20.8482Z" fill="#009109"/>
<path id="Vector_14" d="M116.755 17.1901V22.5558C116.446 22.017 116.06 21.6109 115.595 21.3491C115.004 21.0152 114.361 20.8482 113.669 20.8482C112.852 20.8482 112.142 21.0569 111.532 21.4743C110.922 21.8917 110.454 22.4875 110.119 23.2654C109.785 24.0434 109.621 24.9769 109.621 26.0621C109.621 27.1474 109.785 28.0847 110.116 28.874C110.446 29.6633 110.915 30.2667 111.521 30.6841C112.13 31.1053 112.837 31.314 113.64 31.314C114.346 31.314 114.993 31.1395 115.576 30.7942C116.138 30.4602 116.569 29.9441 116.87 29.2535V31.0788H119.004V17.1825H116.755V17.1901ZM116.528 28.0316C116.309 28.5401 116.015 28.9196 115.647 29.1662C115.279 29.4129 114.863 29.5381 114.405 29.5381C113.673 29.5381 113.093 29.2383 112.662 28.635C112.231 28.0316 112.019 27.193 112.019 26.1191C112.019 25.0452 112.242 24.1458 112.684 23.5387C113.13 22.9315 113.707 22.6241 114.424 22.6241C115.101 22.6241 115.677 22.9125 116.149 23.4855C116.621 24.0585 116.855 24.9313 116.855 26.0963C116.855 26.8742 116.748 27.5193 116.528 28.0278V28.0316Z" fill="#009109"/>
<path id="Vector_15" d="M42.7622 12.5453L37.7622 3.70744C36.6767 1.78731 34.6544 0.595764 32.4834 0.595764H11.093C8.92196 0.595764 6.89965 1.78731 5.81414 3.70744L0.814129 12.5453C-0.271376 14.4655 -0.271376 16.8486 0.814129 18.7687L5.81414 27.6066C6.89965 29.5267 8.92196 30.7183 11.093 30.7183H32.4834C34.6544 30.7183 36.6767 29.5267 37.7622 27.6066L42.7622 18.7687C43.8477 16.8486 43.8477 14.4655 42.7622 12.5453ZM41.3756 17.9528L36.3756 26.7907C35.5726 28.2062 34.0819 29.0865 32.4797 29.0865H11.093C9.49074 29.0865 8.00002 28.2062 7.19705 26.7907L2.19703 17.9528C1.39777 16.5374 1.39777 14.7766 2.19703 13.3612L7.19705 4.5233C8.00002 3.10787 9.49074 2.22749 11.093 2.22749H32.4834C34.0856 2.22749 35.5763 3.10787 36.3793 4.5233L41.3793 13.3612C42.1786 14.7766 42.1786 16.5374 41.3793 17.9528H41.3756Z" fill="#009109"/>
<path id="Vector_16" d="M27.5914 4.71686H25.9929C25.9929 9.02387 28.2754 12.792 31.6658 14.8412H26.7922C21.5171 14.8412 17.2271 10.4621 17.2271 5.07736H15.6286C15.6286 10.4621 11.3386 14.8412 6.06348 14.8412V16.4729C11.3386 16.4729 15.6286 20.852 15.6286 26.2367H17.2271C17.2271 20.852 21.5171 16.4729 26.7922 16.4729H31.6658C28.2754 18.5221 25.9929 22.2902 25.9929 26.5972H27.5914C27.5914 21.0152 32.0413 16.4729 37.5097 16.4729V14.8412C32.0413 14.8412 27.5914 10.2989 27.5914 4.71686ZM16.4278 22.0094C15.294 19.1216 13.0338 16.8144 10.2048 15.657C13.0338 14.4997 15.294 12.1925 16.4278 9.30468C17.5617 12.1925 19.8219 14.4997 22.6509 15.657C19.8219 16.8144 17.5617 19.1216 16.4278 22.0094Z" fill="#009109"/>
</g>
</svg>
