<?xml version="1.0" encoding="UTF-8"?>
<svg id="Layer_1" xmlns="http://www.w3.org/2000/svg" version="1.1" viewBox="0 0 50 50">
  <!-- Generator: Adobe Illustrator 29.6.0, SVG Export Plug-In . SVG Version: 2.1.1 Build 207)  -->
  <defs>
    <style>
      .st0 {
        fill: #fff;
      }
    </style>
  </defs>
  <g id="Group_27">
    <path id="Vector_15" class="st0" d="M48.9,21.5l-5.7-10.1c-1.2-2.2-3.5-3.5-6-3.5H12.8c-2.5,0-4.8,1.4-6,3.5L1.1,21.5c-1.2,2.2-1.2,4.9,0,7.1l5.7,10.1c1.2,2.2,3.5,3.5,6,3.5h24.4c2.5,0,4.8-1.4,6-3.5l5.7-10.1c1.2-2.2,1.2-4.9,0-7.1ZM47.3,27.6l-5.7,10.1c-.9,1.6-2.6,2.6-4.4,2.6H12.8c-1.8,0-3.5-1-4.4-2.6l-5.7-10.1c-.9-1.6-.9-3.6,0-5.2l5.7-10.1c.9-1.6,2.6-2.6,4.4-2.6h24.4c1.8,0,3.5,1,4.4,2.6l5.7,10.1c.9,1.6.9,3.6,0,5.2h0Z"/>
    <path id="Vector_16" class="st0" d="M31.6,12.5h-1.8c0,4.9,2.6,9.2,6.5,11.5h-5.5c-6,0-10.9-5-10.9-11.1h-1.8c0,6.1-4.9,11.1-10.9,11.1v1.9c6,0,10.9,5,10.9,11.1h1.8c0-6.1,4.9-11.1,10.9-11.1h5.5c-3.9,2.3-6.5,6.6-6.5,11.5h1.8c0-6.4,5.1-11.5,11.3-11.5v-1.9c-6.2,0-11.3-5.2-11.3-11.5ZM18.9,32.2c-1.3-3.3-3.9-5.9-7.1-7.2,3.2-1.3,5.8-3.9,7.1-7.2,1.3,3.3,3.9,5.9,7.1,7.2-3.2,1.3-5.8,3.9-7.1,7.2Z"/>
  </g>
</svg>